<?xml version="1.0" standalone="no"?>
<!DOCTYPE svg PUBLIC "-//W3C//DTD SVG 20010904//EN"
 "http://www.w3.org/TR/2001/REC-SVG-20010904/DTD/svg10.dtd">
<svg version="1.0" xmlns="http://www.w3.org/2000/svg"
 width="512.000000pt" height="512.000000pt" viewBox="0 0 512.000000 512.000000"
 preserveAspectRatio="xMidYMid meet">
<metadata>
Created by potrace 1.14, written by Peter Selinger 2001-2017
</metadata>
<g transform="translate(0.000000,512.000000) scale(0.100000,-0.100000)"
fill="#000000" stroke="none">
<path d="M3370 4650 c-578 -61 -1192 -223 -1634 -433 -399 -190 -850 -511
-1176 -837 -417 -418 -605 -814 -550 -1157 23 -140 92 -335 159 -451 34 -60
39 -76 44 -159 27 -387 222 -705 522 -850 118 -56 225 -83 359 -90 105 -6 111
-7 204 -55 386 -196 874 -207 1334 -29 66 25 128 42 173 46 537 50 939 296
1136 696 l32 67 81 7 c319 27 582 160 731 370 45 63 98 163 120 225 7 20 35
66 63 102 57 76 103 169 128 259 27 95 24 307 -5 414 -25 93 -92 237 -148 315
l-38 54 40 61 c23 33 52 94 66 135 34 106 35 307 1 425 -125 438 -542 772
-1080 866 -134 23 -425 33 -562 19z m-191 -275 c28 -25 59 -77 109 -178 85
-172 136 -232 270 -320 53 -35 129 -84 167 -110 101 -66 161 -129 206 -218 44
-89 80 -134 149 -184 59 -44 83 -96 78 -175 l-3 -55 -120 -6 c-66 -4 -159 -14
-207 -23 -91 -17 -264 -73 -331 -108 -21 -10 -40 -18 -42 -16 -2 2 -10 35 -19
74 -25 124 -94 229 -196 299 -22 15 -65 59 -95 96 -65 81 -167 155 -268 198
-40 16 -154 50 -254 75 -296 74 -296 75 -423 246 -35 47 -81 103 -102 126
l-39 41 98 35 c208 75 479 148 753 203 214 43 221 43 269 0z m-2242 -1034 c21
-11 69 -45 108 -76 83 -66 105 -74 154 -50 l36 17 82 -87 c80 -85 82 -87 67
-111 -9 -13 -16 -40 -16 -61 0 -80 106 -124 165 -69 l26 25 121 -27 120 -26 0
-32 c0 -45 32 -80 93 -100 69 -22 146 -61 176 -88 13 -11 47 -53 76 -92 29
-39 81 -93 114 -118 34 -26 68 -60 76 -76 25 -49 38 -128 30 -196 l-7 -64
-106 -91 c-125 -106 -305 -244 -413 -316 l-75 -51 -12 80 c-22 154 -82 242
-202 297 -37 16 -82 48 -105 71 -80 83 -244 183 -353 215 -26 8 -100 23 -164
34 -64 12 -128 25 -143 31 -32 12 -64 46 -165 175 -93 118 -169 195 -227 228
l-43 23 55 80 c81 118 198 255 328 382 128 124 115 119 204 73z m3856 -388
c57 -86 91 -167 111 -265 39 -189 -4 -365 -123 -499 -24 -28 -48 -71 -64 -117
-101 -289 -350 -451 -726 -469 -116 -6 -126 -8 -151 -32 -15 -14 -37 -53 -50
-86 -139 -362 -499 -601 -971 -645 -109 -11 -139 -18 -249 -61 -232 -90 -436
-126 -654 -116 -214 11 -418 67 -571 159 l-70 41 -135 8 c-233 12 -353 61
-490 199 -68 67 -96 104 -132 175 -41 81 -85 201 -76 210 1 2 32 -15 67 -36
161 -98 325 -139 582 -146 292 -8 436 21 639 129 269 142 511 330 1069 828
162 144 331 291 375 327 169 136 351 243 518 301 152 54 212 62 518 72 300 10
372 20 476 63 32 14 60 25 61 26 1 0 22 -29 46 -66z"/>
<path d="M4068 2611 c-27 -24 -33 -36 -33 -71 0 -35 6 -47 34 -72 29 -26 39
-30 75 -25 52 7 86 44 86 93 0 46 -14 70 -50 89 -43 22 -76 18 -112 -14z"/>
<path d="M3378 2041 c-27 -24 -33 -36 -33 -71 0 -35 6 -47 34 -72 29 -26 39
-30 75 -25 52 7 86 44 86 93 0 46 -14 70 -50 89 -43 22 -76 18 -112 -14z"/>
<path d="M2459 1421 c-39 -40 -40 -89 -1 -132 48 -54 134 -38 162 30 40 98
-85 177 -161 102z"/>
</g>
</svg>
